<?xml version="1.0" standalone="no"?>
<!DOCTYPE svg PUBLIC "-//W3C//DTD SVG 20010904//EN"
 "http://www.w3.org/TR/2001/REC-SVG-20010904/DTD/svg10.dtd">
<svg version="1.0" xmlns="http://www.w3.org/2000/svg"
 width="260.000000pt" height="260.000000pt" viewBox="0 0 260.000000 260.000000"
 preserveAspectRatio="xMidYMid meet">
<metadata>
Created by potrace 1.11, written by Peter Selinger 2001-2013
</metadata>
<g transform="translate(0.000000,260.000000) scale(0.100000,-0.100000)"
fill="#000000" stroke="none">
<path d="M0 1300 l0 -1300 1300 0 1300 0 0 1300 0 1300 -1300 0 -1300 0 0
-1300z m1451 666 c89 -19 161 -57 227 -119 80 -77 81 -78 17 -126 -30 -23 -59
-41 -64 -41 -6 0 -20 13 -32 30 -24 32 -85 77 -133 98 -83 36 -247 32 -326 -8
-88 -45 -125 -169 -78 -260 34 -66 86 -93 272 -141 170 -43 238 -70 301 -116
158 -117 167 -385 16 -539 -129 -134 -413 -164 -610 -64 -34 17 -94 61 -133
99 l-72 68 37 33 c21 18 48 41 62 51 l24 19 52 -55 c94 -99 225 -144 365 -124
70 10 91 18 142 56 85 63 106 224 41 307 -33 41 -104 72 -260 111 -298 75
-404 163 -417 346 -13 186 102 332 296 375 78 16 193 17 273 0z"/>
</g>
</svg>
